<?xml version="1.0" standalone="no"?><!DOCTYPE svg PUBLIC "-//W3C//DTD SVG 1.1//EN" "http://www.w3.org/Graphics/SVG/1.1/DTD/svg11.dtd"><svg t="1652143369814" class="icon" viewBox="0 0 1024 1024" version="1.1" xmlns="http://www.w3.org/2000/svg" p-id="3494" xmlns:xlink="http://www.w3.org/1999/xlink" width="48" height="48"><defs><style type="text/css">@font-face { font-family: feedback-iconfont; src: url("//at.alicdn.com/t/font_1031158_u69w8yhxdu.woff2?t=1630033759944") format("woff2"), url("//at.alicdn.com/t/font_1031158_u69w8yhxdu.woff?t=1630033759944") format("woff"), url("//at.alicdn.com/t/font_1031158_u69w8yhxdu.ttf?t=1630033759944") format("truetype"); }
</style></defs><path d="M367.392606 986.866526s-149.665684-130.263579 54.433685-409.707789c0 0 45.271579 43.008 54.379789 81.003789 0 0 90.704842-67.799579 72.542316-244.035368 0 0 308.385684 202.644211 158.72 572.739368 0 0 467.051789-130.263579 86.177684-696.104421 0 0-9.108211 79.333053-36.271158 105.741474 0 0-27.216842-264.353684-403.617684-396.503579 0 0 142.066526 271.683368-81.596632 471.417263 0 0-25.707789-60.200421-61.978947-113.071158 0 0-11.317895 126.490947-92.213895 194.506106-49.852632 41.930105-107.304421 381.143579 249.424842 434.014315z" p-id="3495" fill="#d81e06"></path></svg>