<?xml version="1.0" standalone="no"?><!DOCTYPE svg PUBLIC "-//W3C//DTD SVG 1.1//EN" "http://www.w3.org/Graphics/SVG/1.1/DTD/svg11.dtd"><svg t="1649485436051" class="icon" viewBox="0 0 1024 1024" version="1.1" xmlns="http://www.w3.org/2000/svg" p-id="8259" width="200" height="200" xmlns:xlink="http://www.w3.org/1999/xlink"><defs><style type="text/css">@font-face { font-family: feedback-iconfont; src: url("//at.alicdn.com/t/font_1031158_u69w8yhxdu.woff2?t=1630033759944") format("woff2"), url("//at.alicdn.com/t/font_1031158_u69w8yhxdu.woff?t=1630033759944") format("woff"), url("//at.alicdn.com/t/font_1031158_u69w8yhxdu.ttf?t=1630033759944") format("truetype"); }
</style></defs><path d="M199.111111 85.333333C151.978667 85.333333 113.777778 123.534222 113.777778 170.666667s38.200889 85.333333 85.333333 85.333333 85.333333-38.200889 85.333333-85.333333S246.243556 85.333333 199.111111 85.333333zM199.111111 341.333333c-47.132444 0-85.333333 38.200889-85.333333 85.333333s38.200889 85.333333 85.333333 85.333333 85.333333-38.200889 85.333333-85.333333S246.243556 341.333333 199.111111 341.333333zM113.777778 938.666667l142.222222-85.333333 0-256L113.777778 597.333333 113.777778 938.666667zM910.222222 85.333333c0 0-513.792 0-540.444444 0s-28.444444 28.444444-28.444444 28.444444l0 824.888889 113.777778-85.333333L455.111111 170.666667l455.111111 0L910.222222 85.333333zM739.555556 853.333333l0-142.222222 142.222222 0 0-56.888889-142.222222 0 0-85.333333 170.666667 0 0-85.333333-170.666667 0 0-113.777778 142.222222 0 0-56.888889-142.222222 0L739.555556 256l-113.777778 0 0 56.888889-142.222222 0 0 56.888889 142.222222 0 0 113.777778-142.222222 0 0 85.333333 142.222222 0 0 85.333333-142.222222 0 0 56.888889 142.222222 0 0 142.222222-142.222222 0 0 56.888889 455.111111 0 0-56.888889L739.555556 853.333333z" p-id="8260" fill="#1296db"></path></svg>