<?xml version="1.0" standalone="no"?><!DOCTYPE svg PUBLIC "-//W3C//DTD SVG 1.1//EN" "http://www.w3.org/Graphics/SVG/1.1/DTD/svg11.dtd"><svg t="1649485298112" class="icon" viewBox="0 0 1024 1024" version="1.1" xmlns="http://www.w3.org/2000/svg" p-id="7105" xmlns:xlink="http://www.w3.org/1999/xlink" width="200" height="200"><defs><style type="text/css">@font-face { font-family: feedback-iconfont; src: url("//at.alicdn.com/t/font_1031158_u69w8yhxdu.woff2?t=1630033759944") format("woff2"), url("//at.alicdn.com/t/font_1031158_u69w8yhxdu.woff?t=1630033759944") format("woff"), url("//at.alicdn.com/t/font_1031158_u69w8yhxdu.ttf?t=1630033759944") format("truetype"); }
</style></defs><path d="M223.36 67.328h577.28a156.032 156.032 0 0 1 156.032 156.032v577.28a156.032 156.032 0 0 1-156.032 156.032H223.36a156.032 156.032 0 0 1-156.032-156.032V223.36A156.032 156.032 0 0 1 223.36 67.328z" fill="#FFFFFF" p-id="7106"></path><path d="M800.64 960H223.36A159.616 159.616 0 0 1 64 800.576v-577.28A159.552 159.552 0 0 1 223.36 64h577.28A159.552 159.552 0 0 1 960 223.36v577.216A159.616 159.616 0 0 1 800.64 960zM223.36 70.784A152.768 152.768 0 0 0 70.784 223.36v577.216a152.768 152.768 0 0 0 152.576 152.64h577.28a152.768 152.768 0 0 0 152.576-152.64v-577.28a152.768 152.768 0 0 0-152.576-152.512H223.36z" fill="#DBDCDC" p-id="7107"></path><path d="M246.528 319.552l57.344-85.632 24.448 30.72 34.368-56.256 53.568 100.352V200.96H187.84v151.232h228.416v-32.768l-169.728 0.128zM214.208 231.68a19.648 19.648 0 1 1 39.36-0.192 19.648 19.648 0 0 1-39.36 0.192z m451.712-30.72h170.88v25.024h-170.88V200.96z m0 47.616h170.88v24.96h-170.88v-24.96z m0-95.168h170.88v25.024h-170.88v-24.96z m-222.08 47.552H637.44v25.024H443.84V200.96z m0 47.616H637.44v24.96H443.84v-24.96z m0-95.168H637.44v25.024H443.84v-24.96zM187.52 797.888h449.92v25.088H187.52v-25.024z m0 47.68h449.92v24.96H187.52v-24.96z m0-95.168h449.92v25.024H187.52v-24.96z m478.4 47.552h170.88v24.96h-170.88v-24.96z m0 47.616h170.88v24.96h-170.88v-24.96z m0-95.168h170.88v25.024h-170.88v-24.96zM202.24 153.408a20.096 20.096 0 0 1 4.16 0c1.152 0.256 2.24 0.704 3.2 1.28 0.896 0.64 1.6 1.536 2.048 2.56a7.68 7.68 0 0 1 0.704 3.648 7.104 7.104 0 0 1-1.024 4.032 8.256 8.256 0 0 1-3.264 2.624 7.04 7.04 0 0 1 4.416 3.008 9.408 9.408 0 0 1 0.832 9.6 9.728 9.728 0 0 1-6.144 4.48 16.192 16.192 0 0 1-4.096 0.512h-16.064v-31.744h15.232z m-0.832 12.8a4.928 4.928 0 0 0 3.072-0.832 3.456 3.456 0 0 0 1.152-2.88 4.032 4.032 0 0 0 0-1.92 3.008 3.008 0 0 0-1.088-1.024 4.224 4.224 0 0 0-1.6-0.64h-8.32V166.4l6.784-0.064z m0 13.568h1.984a4.224 4.224 0 0 0 1.6-0.64 3.2 3.2 0 0 0 1.152-1.28 4.288 4.288 0 0 0 0.448-2.048 4.032 4.032 0 0 0-1.408-3.52 5.76 5.76 0 0 0-3.648-1.024H193.92v8.768l7.488-0.256z m23.936 11.712a9.28 9.28 0 0 1-5.12 1.088h-3.84v-5.248h3.712a2.368 2.368 0 0 0 1.856-0.96 2.752 2.752 0 0 0 0.64-1.856 3.584 3.584 0 0 0 0-1.408l-8.128-21.568h6.784l5.12 15.68 4.48-15.616h6.656l-9.664 25.792a7.488 7.488 0 0 1-2.496 4.096z m31.936-29.888l-2.816 4.224h-4.672v11.776a2.112 2.112 0 0 0 2.624 2.56h2.048v4.992h-3.328a14.208 14.208 0 0 1-2.816 0 4.736 4.736 0 0 1-2.304-0.832 3.456 3.456 0 0 1-1.6-1.536 5.504 5.504 0 0 1-0.64-2.816V165.76h-4.096v-4.224h3.84v-3.584l6.272-3.008v6.592h7.488z m40.384-8.192c1.92 0 3.84 0.32 5.76 0.96a13.376 13.376 0 0 1 7.68 7.808 20.224 20.224 0 0 1 0.96 6.976 20.8 20.8 0 0 1-0.896 6.336 13.504 13.504 0 0 1-2.688 5.12 11.584 11.584 0 0 1-4.48 3.328 14.08 14.08 0 0 1-6.336 1.216h-14.08v-31.744h14.08z m-0.448 25.856c0.96 0.128 1.92 0.128 2.88 0a6.784 6.784 0 0 0 2.56-1.664 7.68 7.68 0 0 0 1.792-2.944 16.512 16.512 0 0 0 0.192-8.768 8.256 8.256 0 0 0-1.536-3.328 6.144 6.144 0 0 0-2.816-2.112 10.688 10.688 0 0 0-4.352-0.64h-4.928v19.84l6.208-0.384z m85.888-3.2a5.248 5.248 0 0 1-4.8 4.352c-4.928 0-5.248-6.528-5.248-6.528v-1.664s0-6.4 5.248-6.528c2.432 0.192 4.416 1.92 4.8 4.352h5.888a10.88 10.88 0 0 0-10.944-8.832c-5.952 0-10.88 4.544-11.264 10.496a18.688 18.688 0 0 0 0 3.2 11.136 11.136 0 0 0 11.264 10.496 10.816 10.816 0 0 0 10.944-8.768l-5.888-0.576z m28.48-1.472h3.2a17.6 17.6 0 0 0 0-3.2 11.072 11.072 0 0 0-11.264-10.752 11.072 11.072 0 0 0-11.264 10.432 18.688 18.688 0 0 0 0 3.2 11.072 11.072 0 0 0 11.264 10.496 10.816 10.816 0 0 0 10.688-7.68h-6.4a4.8 4.8 0 0 1-4.288 2.944c-3.84 0-4.928-4.096-5.184-5.76h13.504l-0.256 0.32z m-8.768-8.768c3.2 0 4.48 3.84 4.992 6.272h-9.6c0.576-2.56 1.792-6.272 5.056-6.4l-0.448 0.128z m-125.504 8.768h3.136a17.6 17.6 0 0 0 0-3.2 11.136 11.136 0 0 0-11.264-10.752 11.072 11.072 0 0 0-11.136 10.432 18.688 18.688 0 0 0 0 3.2 11.072 11.072 0 0 0 11.136 10.496 10.624 10.624 0 0 0 10.624-7.68h-6.4a4.672 4.672 0 0 1-4.288 2.944c-3.84 0-4.928-4.096-5.184-5.76h13.504l-0.128 0.32z m-8.832-8.768c2.624 0.32 4.736 2.944 5.056 6.272h-9.6c0.512-2.56 2.112-6.272 4.992-6.4l-0.448 0.128z m69.504-3.84h-6.784a14.144 14.144 0 0 0-4.736-1.024 11.072 11.072 0 0 0-11.072 10.496 18.688 18.688 0 0 0 0 3.2 11.072 11.072 0 0 0 11.072 10.496 11.392 11.392 0 0 0 5.888-1.6l5.632 1.6V161.92z m-11.52 18.432c-4.8 0-5.12-6.528-5.12-6.528-0.128-0.576-0.128-1.088 0-1.664 0 0 0-6.4 5.12-6.528 4.736 0 5.184 6.528 5.184 6.528v1.664s-0.448 6.4-5.12 6.528z m36.8-12.352a8.192 8.192 0 0 0-7.424-7.04 8.768 8.768 0 0 0-7.296 2.88l-6.72-1.92v23.168h6.272v-13.312c0-6.528 5.248-6.016 5.248-6.016 3.968 0 3.712 5.376 3.712 5.376v13.952h6.336v-13.952c0-1.792-0.128-3.136-0.128-3.136z" fill="#DBDCDC" p-id="7108"></path><path d="M64 256.704v544c0 4.608 0 9.28 0.704 13.824L960 763.84V223.36c0-4.672 0-9.344-0.64-13.888L64 256.64z" fill="#E62318" p-id="7109"></path><path d="M864.896 569.92V527.36l-134.272 7.68v-21.376l-64.704 3.712v21.312l-134.272 7.68V588.8l134.272-7.552v93.504l64.704-3.648V577.536z" fill="#FFFFFF" p-id="7110"></path><path d="M531.584 491.52v42.432l46.08-2.624v-0.064l119.04-58.624 121.536 44.8v0.192l46.656-2.752v-42.432l-31.104 1.792-80.32-29.632 106.368-52.352V318.72l-64.704 3.712-148.928 8.448v-0.128l-51.648-24.576-65.92 104.832 54.72 19.84 35.2-56 176.576-9.984v10.24l-98.56 48.512-76.544-28.16-25.792 39.424 45.44 16.768-77.44 38.144-30.656 1.728z m298.304 92.864l-64.704 3.584 47.232 78.464 64.64-3.584-47.168-78.464zM531.84 682.496l64.768-3.584 43.136-83.648-64.768 3.712-43.136 83.52zM378.048 587.264l51.2 100.48 71.68-3.648-51.2-100.416-71.68 3.584zM310.72 513.728l-52.352-65.92-71.36 4.032 52.224 65.92 71.488-4.032z m0-82.368l-52.352-65.92-71.36 3.968 52.224 65.984 71.488-4.032z" fill="#FFFFFF" p-id="7111"></path><path d="M372.416 575.616l119.552-6.784v-42.432l-79.36 4.48V344.128l-64.768 3.584v186.88l-189.056 10.816v42.432l131.52-7.488-58.24 76.672-71.552 4.16v42.432l120-6.976v-0.192L372.48 575.616z" fill="#FFFFFF" p-id="7112"></path></svg>